<mxfile host="app.diagrams.net" agent="Mozilla/5.0 (Windows NT 10.0; Win64; x64) AppleWebKit/537.36 (KHTML, like Gecko) Chrome/127.0.0.0 Safari/537.36" version="24.7.4">
  <diagram name="Page-1" id="6ViGdZfE5kS3konKiXeP">
    <mxGraphModel dx="1372" dy="870" grid="1" gridSize="10" guides="1" tooltips="1" connect="1" arrows="1" fold="1" page="1" pageScale="1" pageWidth="850" pageHeight="1100" math="0" shadow="0">
      <root>
        <mxCell id="0" />
        <mxCell id="1" parent="0" />
        <mxCell id="QQjfzLLn-K8nmrEozijN-7" value="Siswa" style="whiteSpace=wrap;html=1;align=center;" vertex="1" parent="1">
          <mxGeometry x="190" y="350" width="100" height="40" as="geometry" />
        </mxCell>
        <mxCell id="QQjfzLLn-K8nmrEozijN-8" value="Fikri" style="ellipse;whiteSpace=wrap;html=1;align=center;" vertex="1" parent="1">
          <mxGeometry x="190" y="200" width="100" height="40" as="geometry" />
        </mxCell>
        <mxCell id="QQjfzLLn-K8nmrEozijN-9" value="nim" style="ellipse;whiteSpace=wrap;html=1;align=center;fontStyle=4;" vertex="1" parent="1">
          <mxGeometry x="110" y="300" width="70" height="40" as="geometry" />
        </mxCell>
        <mxCell id="QQjfzLLn-K8nmrEozijN-10" value="Mendaftar" style="shape=rhombus;perimeter=rhombusPerimeter;whiteSpace=wrap;html=1;align=center;" vertex="1" parent="1">
          <mxGeometry x="380" y="325" width="100" height="90" as="geometry" />
        </mxCell>
        <mxCell id="QQjfzLLn-K8nmrEozijN-16" value="Fikri" style="ellipse;whiteSpace=wrap;html=1;align=center;" vertex="1" parent="1">
          <mxGeometry x="200" y="280" width="80" height="40" as="geometry" />
        </mxCell>
        <mxCell id="QQjfzLLn-K8nmrEozijN-18" value="" style="endArrow=none;html=1;rounded=0;exitX=0.5;exitY=1;exitDx=0;exitDy=0;entryX=0.5;entryY=0;entryDx=0;entryDy=0;" edge="1" parent="1" source="QQjfzLLn-K8nmrEozijN-8" target="QQjfzLLn-K8nmrEozijN-16">
          <mxGeometry relative="1" as="geometry">
            <mxPoint x="330" y="380" as="sourcePoint" />
            <mxPoint x="490" y="380" as="targetPoint" />
          </mxGeometry>
        </mxCell>
        <mxCell id="QQjfzLLn-K8nmrEozijN-19" value="Muhammad" style="ellipse;whiteSpace=wrap;html=1;align=center;" vertex="1" parent="1">
          <mxGeometry x="100" y="230" width="100" height="40" as="geometry" />
        </mxCell>
        <mxCell id="QQjfzLLn-K8nmrEozijN-20" value="Alfarizi" style="ellipse;whiteSpace=wrap;html=1;align=center;" vertex="1" parent="1">
          <mxGeometry x="280" y="230" width="100" height="40" as="geometry" />
        </mxCell>
        <mxCell id="QQjfzLLn-K8nmrEozijN-21" value="" style="endArrow=none;html=1;rounded=0;exitX=1;exitY=1;exitDx=0;exitDy=0;entryX=0.5;entryY=0;entryDx=0;entryDy=0;" edge="1" parent="1" source="QQjfzLLn-K8nmrEozijN-19" target="QQjfzLLn-K8nmrEozijN-16">
          <mxGeometry relative="1" as="geometry">
            <mxPoint x="310" y="210" as="sourcePoint" />
            <mxPoint x="310" y="280" as="targetPoint" />
          </mxGeometry>
        </mxCell>
        <mxCell id="QQjfzLLn-K8nmrEozijN-22" value="" style="endArrow=none;html=1;rounded=0;exitX=0.5;exitY=0;exitDx=0;exitDy=0;entryX=0.5;entryY=1;entryDx=0;entryDy=0;" edge="1" parent="1" source="QQjfzLLn-K8nmrEozijN-16" target="QQjfzLLn-K8nmrEozijN-20">
          <mxGeometry relative="1" as="geometry">
            <mxPoint x="175" y="224" as="sourcePoint" />
            <mxPoint x="460" y="290" as="targetPoint" />
          </mxGeometry>
        </mxCell>
        <mxCell id="QQjfzLLn-K8nmrEozijN-23" value="" style="endArrow=none;html=1;rounded=0;exitX=0.5;exitY=1;exitDx=0;exitDy=0;entryX=0.5;entryY=0;entryDx=0;entryDy=0;" edge="1" parent="1" source="QQjfzLLn-K8nmrEozijN-16" target="QQjfzLLn-K8nmrEozijN-7">
          <mxGeometry relative="1" as="geometry">
            <mxPoint x="330" y="380" as="sourcePoint" />
            <mxPoint x="490" y="380" as="targetPoint" />
          </mxGeometry>
        </mxCell>
        <mxCell id="QQjfzLLn-K8nmrEozijN-24" value="Bandung" style="ellipse;whiteSpace=wrap;html=1;align=center;" vertex="1" parent="1">
          <mxGeometry x="110" y="400" width="70" height="40" as="geometry" />
        </mxCell>
        <mxCell id="QQjfzLLn-K8nmrEozijN-26" value="PPLG" style="ellipse;whiteSpace=wrap;html=1;align=center;" vertex="1" parent="1">
          <mxGeometry x="70" y="350" width="70" height="40" as="geometry" />
        </mxCell>
        <mxCell id="QQjfzLLn-K8nmrEozijN-29" value="" style="endArrow=none;html=1;rounded=0;exitX=0.5;exitY=1;exitDx=0;exitDy=0;entryX=0;entryY=0.5;entryDx=0;entryDy=0;" edge="1" parent="1" source="QQjfzLLn-K8nmrEozijN-9" target="QQjfzLLn-K8nmrEozijN-7">
          <mxGeometry relative="1" as="geometry">
            <mxPoint x="165" y="330" as="sourcePoint" />
            <mxPoint x="200" y="370" as="targetPoint" />
          </mxGeometry>
        </mxCell>
        <mxCell id="QQjfzLLn-K8nmrEozijN-30" value="" style="endArrow=none;html=1;rounded=0;entryX=1;entryY=0.5;entryDx=0;entryDy=0;exitX=0;exitY=0.5;exitDx=0;exitDy=0;" edge="1" parent="1" source="QQjfzLLn-K8nmrEozijN-7" target="QQjfzLLn-K8nmrEozijN-26">
          <mxGeometry relative="1" as="geometry">
            <mxPoint x="190" y="370" as="sourcePoint" />
            <mxPoint x="260" y="370" as="targetPoint" />
          </mxGeometry>
        </mxCell>
        <mxCell id="QQjfzLLn-K8nmrEozijN-31" value="" style="endArrow=none;html=1;rounded=0;exitX=0.5;exitY=0;exitDx=0;exitDy=0;entryX=0;entryY=0.5;entryDx=0;entryDy=0;" edge="1" parent="1" source="QQjfzLLn-K8nmrEozijN-24" target="QQjfzLLn-K8nmrEozijN-7">
          <mxGeometry relative="1" as="geometry">
            <mxPoint x="260" y="370" as="sourcePoint" />
            <mxPoint x="200" y="370" as="targetPoint" />
          </mxGeometry>
        </mxCell>
        <mxCell id="QQjfzLLn-K8nmrEozijN-34" value="" style="endArrow=none;html=1;rounded=0;exitX=1;exitY=0.5;exitDx=0;exitDy=0;entryX=0;entryY=0.5;entryDx=0;entryDy=0;" edge="1" parent="1" source="QQjfzLLn-K8nmrEozijN-7" target="QQjfzLLn-K8nmrEozijN-10">
          <mxGeometry relative="1" as="geometry">
            <mxPoint x="180" y="380" as="sourcePoint" />
            <mxPoint x="260" y="420" as="targetPoint" />
          </mxGeometry>
        </mxCell>
        <mxCell id="QQjfzLLn-K8nmrEozijN-39" value="Bandung" style="ellipse;whiteSpace=wrap;html=1;align=center;" vertex="1" parent="1">
          <mxGeometry x="340" y="310" width="64" height="40" as="geometry" />
        </mxCell>
        <mxCell id="QQjfzLLn-K8nmrEozijN-40" value="Fikri" style="ellipse;whiteSpace=wrap;html=1;align=center;" vertex="1" parent="1">
          <mxGeometry x="460" y="310" width="60" height="40" as="geometry" />
        </mxCell>
        <mxCell id="QQjfzLLn-K8nmrEozijN-41" value="PPLG" style="ellipse;whiteSpace=wrap;html=1;align=center;" vertex="1" parent="1">
          <mxGeometry x="370" y="260" width="60" height="40" as="geometry" />
        </mxCell>
        <mxCell id="QQjfzLLn-K8nmrEozijN-43" value="nim" style="ellipse;whiteSpace=wrap;html=1;align=center;fontStyle=4;" vertex="1" parent="1">
          <mxGeometry x="440" y="260" width="60" height="40" as="geometry" />
        </mxCell>
        <mxCell id="QQjfzLLn-K8nmrEozijN-44" value="" style="endArrow=none;html=1;rounded=0;entryX=1;entryY=0.5;entryDx=0;entryDy=0;exitX=0.5;exitY=0;exitDx=0;exitDy=0;" edge="1" parent="1" source="QQjfzLLn-K8nmrEozijN-10" target="QQjfzLLn-K8nmrEozijN-39">
          <mxGeometry relative="1" as="geometry">
            <mxPoint x="390" y="320" as="sourcePoint" />
            <mxPoint x="420" y="300" as="targetPoint" />
          </mxGeometry>
        </mxCell>
        <mxCell id="QQjfzLLn-K8nmrEozijN-46" value="" style="endArrow=none;html=1;rounded=0;exitX=0.5;exitY=1;exitDx=0;exitDy=0;entryX=0.5;entryY=0;entryDx=0;entryDy=0;" edge="1" parent="1" source="QQjfzLLn-K8nmrEozijN-43" target="QQjfzLLn-K8nmrEozijN-10">
          <mxGeometry relative="1" as="geometry">
            <mxPoint x="390" y="320" as="sourcePoint" />
            <mxPoint x="440" y="335" as="targetPoint" />
          </mxGeometry>
        </mxCell>
        <mxCell id="QQjfzLLn-K8nmrEozijN-47" value="" style="endArrow=none;html=1;rounded=0;entryX=0;entryY=0.5;entryDx=0;entryDy=0;exitX=0.5;exitY=0;exitDx=0;exitDy=0;" edge="1" parent="1" source="QQjfzLLn-K8nmrEozijN-10" target="QQjfzLLn-K8nmrEozijN-40">
          <mxGeometry relative="1" as="geometry">
            <mxPoint x="470" y="320" as="sourcePoint" />
            <mxPoint x="440" y="335" as="targetPoint" />
          </mxGeometry>
        </mxCell>
        <mxCell id="QQjfzLLn-K8nmrEozijN-48" value="" style="endArrow=none;html=1;rounded=0;entryX=0.5;entryY=0;entryDx=0;entryDy=0;exitX=0.5;exitY=1;exitDx=0;exitDy=0;" edge="1" parent="1" source="QQjfzLLn-K8nmrEozijN-41" target="QQjfzLLn-K8nmrEozijN-10">
          <mxGeometry relative="1" as="geometry">
            <mxPoint x="490" y="320" as="sourcePoint" />
            <mxPoint x="440" y="335" as="targetPoint" />
          </mxGeometry>
        </mxCell>
        <mxCell id="QQjfzLLn-K8nmrEozijN-49" value="Anggota&lt;div&gt;Perpustakaan&lt;/div&gt;" style="whiteSpace=wrap;html=1;align=center;" vertex="1" parent="1">
          <mxGeometry x="600" y="350" width="100" height="40" as="geometry" />
        </mxCell>
        <mxCell id="QQjfzLLn-K8nmrEozijN-75" value="masa_berlalu" style="ellipse;whiteSpace=wrap;html=1;align=center;fontSize=10;" vertex="1" parent="1">
          <mxGeometry x="690" y="300" width="80" height="40" as="geometry" />
        </mxCell>
        <mxCell id="QQjfzLLn-K8nmrEozijN-76" value="Fikri" style="ellipse;whiteSpace=wrap;html=1;align=center;" vertex="1" parent="1">
          <mxGeometry x="570" y="240" width="80" height="40" as="geometry" />
        </mxCell>
        <mxCell id="QQjfzLLn-K8nmrEozijN-78" value="" style="endArrow=none;html=1;rounded=0;exitX=1;exitY=0.5;exitDx=0;exitDy=0;entryX=0.5;entryY=0;entryDx=0;entryDy=0;" edge="1" source="QQjfzLLn-K8nmrEozijN-114" parent="1" target="QQjfzLLn-K8nmrEozijN-49">
          <mxGeometry relative="1" as="geometry">
            <mxPoint x="610" y="320" as="sourcePoint" />
            <mxPoint x="650" y="350" as="targetPoint" />
          </mxGeometry>
        </mxCell>
        <mxCell id="QQjfzLLn-K8nmrEozijN-79" value="" style="endArrow=none;html=1;rounded=0;exitX=0.5;exitY=1;exitDx=0;exitDy=0;entryX=0.5;entryY=0;entryDx=0;entryDy=0;" edge="1" source="QQjfzLLn-K8nmrEozijN-115" parent="1" target="QQjfzLLn-K8nmrEozijN-49">
          <mxGeometry relative="1" as="geometry">
            <mxPoint x="700" y="280" as="sourcePoint" />
            <mxPoint x="650" y="350" as="targetPoint" />
          </mxGeometry>
        </mxCell>
        <mxCell id="QQjfzLLn-K8nmrEozijN-80" value="" style="endArrow=none;html=1;rounded=0;exitX=0;exitY=0.5;exitDx=0;exitDy=0;entryX=0.5;entryY=0;entryDx=0;entryDy=0;" edge="1" source="QQjfzLLn-K8nmrEozijN-75" parent="1" target="QQjfzLLn-K8nmrEozijN-49">
          <mxGeometry relative="1" as="geometry">
            <mxPoint x="715" y="315" as="sourcePoint" />
            <mxPoint x="650" y="350" as="targetPoint" />
          </mxGeometry>
        </mxCell>
        <mxCell id="QQjfzLLn-K8nmrEozijN-81" value="" style="endArrow=none;html=1;rounded=0;entryX=0.5;entryY=0;entryDx=0;entryDy=0;exitX=0.5;exitY=1;exitDx=0;exitDy=0;" edge="1" source="QQjfzLLn-K8nmrEozijN-76" parent="1" target="QQjfzLLn-K8nmrEozijN-49">
          <mxGeometry relative="1" as="geometry">
            <mxPoint x="710" y="345" as="sourcePoint" />
            <mxPoint x="650" y="350" as="targetPoint" />
          </mxGeometry>
        </mxCell>
        <mxCell id="QQjfzLLn-K8nmrEozijN-82" value="Meminjam" style="shape=rhombus;perimeter=rhombusPerimeter;whiteSpace=wrap;html=1;align=center;fontSize=11;" vertex="1" parent="1">
          <mxGeometry x="612.5" y="550" width="75" height="70" as="geometry" />
        </mxCell>
        <mxCell id="QQjfzLLn-K8nmrEozijN-84" value="tanggal_pinjam" style="ellipse;whiteSpace=wrap;html=1;align=center;" vertex="1" parent="1">
          <mxGeometry x="490" y="600" width="100" height="40" as="geometry" />
        </mxCell>
        <mxCell id="QQjfzLLn-K8nmrEozijN-85" value="tanggal_kembali" style="ellipse;whiteSpace=wrap;html=1;align=center;" vertex="1" parent="1">
          <mxGeometry x="480" y="550" width="100" height="40" as="geometry" />
        </mxCell>
        <mxCell id="QQjfzLLn-K8nmrEozijN-87" value="kode_peminjaman" style="ellipse;whiteSpace=wrap;html=1;align=center;fontSize=10;" vertex="1" parent="1">
          <mxGeometry x="530" y="500" width="100" height="40" as="geometry" />
        </mxCell>
        <mxCell id="QQjfzLLn-K8nmrEozijN-88" value="judul_buku" style="ellipse;whiteSpace=wrap;html=1;align=center;" vertex="1" parent="1">
          <mxGeometry x="710" y="600" width="100" height="40" as="geometry" />
        </mxCell>
        <mxCell id="QQjfzLLn-K8nmrEozijN-89" value="" style="endArrow=none;html=1;rounded=0;exitX=0.5;exitY=1;exitDx=0;exitDy=0;entryX=0;entryY=0.5;entryDx=0;entryDy=0;" edge="1" parent="1" source="QQjfzLLn-K8nmrEozijN-87" target="QQjfzLLn-K8nmrEozijN-82">
          <mxGeometry relative="1" as="geometry">
            <mxPoint x="310" y="440" as="sourcePoint" />
            <mxPoint x="470" y="440" as="targetPoint" />
          </mxGeometry>
        </mxCell>
        <mxCell id="QQjfzLLn-K8nmrEozijN-91" value="" style="endArrow=none;html=1;rounded=0;exitX=1;exitY=0.5;exitDx=0;exitDy=0;entryX=0;entryY=0.5;entryDx=0;entryDy=0;" edge="1" parent="1" source="QQjfzLLn-K8nmrEozijN-84" target="QQjfzLLn-K8nmrEozijN-82">
          <mxGeometry relative="1" as="geometry">
            <mxPoint x="585.9999999999998" y="609.9999999999998" as="sourcePoint" />
            <mxPoint x="623" y="595" as="targetPoint" />
          </mxGeometry>
        </mxCell>
        <mxCell id="QQjfzLLn-K8nmrEozijN-93" value="" style="endArrow=none;html=1;rounded=0;exitX=1;exitY=0.5;exitDx=0;exitDy=0;entryX=0;entryY=0.5;entryDx=0;entryDy=0;" edge="1" parent="1" source="QQjfzLLn-K8nmrEozijN-85" target="QQjfzLLn-K8nmrEozijN-82">
          <mxGeometry relative="1" as="geometry">
            <mxPoint x="570" y="570" as="sourcePoint" />
            <mxPoint x="623" y="595" as="targetPoint" />
          </mxGeometry>
        </mxCell>
        <mxCell id="QQjfzLLn-K8nmrEozijN-94" value="" style="endArrow=none;html=1;rounded=0;entryX=1;entryY=0.5;entryDx=0;entryDy=0;exitX=0.5;exitY=1;exitDx=0;exitDy=0;" edge="1" parent="1" source="QQjfzLLn-K8nmrEozijN-116" target="QQjfzLLn-K8nmrEozijN-82">
          <mxGeometry relative="1" as="geometry">
            <mxPoint x="690" y="550" as="sourcePoint" />
            <mxPoint x="623" y="595" as="targetPoint" />
          </mxGeometry>
        </mxCell>
        <mxCell id="QQjfzLLn-K8nmrEozijN-95" value="" style="endArrow=none;html=1;rounded=0;exitX=0;exitY=0.5;exitDx=0;exitDy=0;entryX=1;entryY=0.5;entryDx=0;entryDy=0;" edge="1" parent="1" source="QQjfzLLn-K8nmrEozijN-117" target="QQjfzLLn-K8nmrEozijN-82">
          <mxGeometry relative="1" as="geometry">
            <mxPoint x="730" y="570" as="sourcePoint" />
            <mxPoint x="698" y="595" as="targetPoint" />
          </mxGeometry>
        </mxCell>
        <mxCell id="QQjfzLLn-K8nmrEozijN-96" value="" style="endArrow=none;html=1;rounded=0;exitX=0;exitY=0.5;exitDx=0;exitDy=0;entryX=1;entryY=0.5;entryDx=0;entryDy=0;" edge="1" parent="1" source="QQjfzLLn-K8nmrEozijN-88" target="QQjfzLLn-K8nmrEozijN-82">
          <mxGeometry relative="1" as="geometry">
            <mxPoint x="727" y="573" as="sourcePoint" />
            <mxPoint x="698" y="595" as="targetPoint" />
          </mxGeometry>
        </mxCell>
        <mxCell id="QQjfzLLn-K8nmrEozijN-97" value="" style="endArrow=none;html=1;rounded=0;exitX=0.5;exitY=1;exitDx=0;exitDy=0;entryX=0.5;entryY=0;entryDx=0;entryDy=0;" edge="1" parent="1" source="QQjfzLLn-K8nmrEozijN-49" target="QQjfzLLn-K8nmrEozijN-82">
          <mxGeometry relative="1" as="geometry">
            <mxPoint x="590" y="550" as="sourcePoint" />
            <mxPoint x="623" y="595" as="targetPoint" />
          </mxGeometry>
        </mxCell>
        <mxCell id="QQjfzLLn-K8nmrEozijN-122" value="1" style="edgeLabel;html=1;align=center;verticalAlign=middle;resizable=0;points=[];" vertex="1" connectable="0" parent="QQjfzLLn-K8nmrEozijN-97">
          <mxGeometry x="-0.5299" relative="1" as="geometry">
            <mxPoint as="offset" />
          </mxGeometry>
        </mxCell>
        <mxCell id="QQjfzLLn-K8nmrEozijN-98" value="Buku" style="whiteSpace=wrap;html=1;align=center;" vertex="1" parent="1">
          <mxGeometry x="600" y="720" width="100" height="40" as="geometry" />
        </mxCell>
        <mxCell id="QQjfzLLn-K8nmrEozijN-99" value="denda" style="ellipse;whiteSpace=wrap;html=1;align=center;" vertex="1" parent="1">
          <mxGeometry x="670" y="640" width="80" height="40" as="geometry" />
        </mxCell>
        <mxCell id="QQjfzLLn-K8nmrEozijN-100" value="" style="endArrow=none;html=1;rounded=0;exitX=0.5;exitY=0;exitDx=0;exitDy=0;entryX=0.994;entryY=0.527;entryDx=0;entryDy=0;entryPerimeter=0;" edge="1" source="QQjfzLLn-K8nmrEozijN-99" parent="1" target="QQjfzLLn-K8nmrEozijN-82">
          <mxGeometry relative="1" as="geometry">
            <mxPoint x="717" y="628" as="sourcePoint" />
            <mxPoint x="690" y="585" as="targetPoint" />
          </mxGeometry>
        </mxCell>
        <mxCell id="QQjfzLLn-K8nmrEozijN-101" value="" style="endArrow=none;html=1;rounded=0;exitX=0.5;exitY=0;exitDx=0;exitDy=0;entryX=0.5;entryY=1;entryDx=0;entryDy=0;" edge="1" parent="1" source="QQjfzLLn-K8nmrEozijN-98" target="QQjfzLLn-K8nmrEozijN-82">
          <mxGeometry relative="1" as="geometry">
            <mxPoint x="720" y="650" as="sourcePoint" />
            <mxPoint x="698" y="595" as="targetPoint" />
          </mxGeometry>
        </mxCell>
        <mxCell id="QQjfzLLn-K8nmrEozijN-119" value="Many" style="edgeLabel;html=1;align=center;verticalAlign=middle;resizable=0;points=[];" vertex="1" connectable="0" parent="QQjfzLLn-K8nmrEozijN-101">
          <mxGeometry x="0.5669" relative="1" as="geometry">
            <mxPoint as="offset" />
          </mxGeometry>
        </mxCell>
        <mxCell id="QQjfzLLn-K8nmrEozijN-102" value="judul_buku" style="ellipse;whiteSpace=wrap;html=1;align=center;" vertex="1" parent="1">
          <mxGeometry x="500" y="760" width="100" height="40" as="geometry" />
        </mxCell>
        <mxCell id="QQjfzLLn-K8nmrEozijN-104" value="tahun_penerbit" style="ellipse;whiteSpace=wrap;html=1;align=center;" vertex="1" parent="1">
          <mxGeometry x="540" y="860" width="100" height="40" as="geometry" />
        </mxCell>
        <mxCell id="QQjfzLLn-K8nmrEozijN-105" value="pengarang" style="ellipse;whiteSpace=wrap;html=1;align=center;" vertex="1" parent="1">
          <mxGeometry x="710" y="760" width="100" height="40" as="geometry" />
        </mxCell>
        <mxCell id="QQjfzLLn-K8nmrEozijN-106" value="jenis_buku" style="ellipse;whiteSpace=wrap;html=1;align=center;" vertex="1" parent="1">
          <mxGeometry x="710" y="810" width="100" height="40" as="geometry" />
        </mxCell>
        <mxCell id="QQjfzLLn-K8nmrEozijN-107" value="penerbit" style="ellipse;whiteSpace=wrap;html=1;align=center;" vertex="1" parent="1">
          <mxGeometry x="650" y="860" width="100" height="40" as="geometry" />
        </mxCell>
        <mxCell id="QQjfzLLn-K8nmrEozijN-108" value="" style="endArrow=none;html=1;rounded=0;exitX=0.5;exitY=1;exitDx=0;exitDy=0;entryX=1;entryY=0.5;entryDx=0;entryDy=0;" edge="1" parent="1" source="QQjfzLLn-K8nmrEozijN-98" target="QQjfzLLn-K8nmrEozijN-102">
          <mxGeometry relative="1" as="geometry">
            <mxPoint x="310" y="640" as="sourcePoint" />
            <mxPoint x="470" y="640" as="targetPoint" />
          </mxGeometry>
        </mxCell>
        <mxCell id="QQjfzLLn-K8nmrEozijN-109" value="" style="endArrow=none;html=1;rounded=0;entryX=0.965;entryY=0.291;entryDx=0;entryDy=0;entryPerimeter=0;" edge="1" parent="1">
          <mxGeometry relative="1" as="geometry">
            <mxPoint x="650" y="760" as="sourcePoint" />
            <mxPoint x="586.5" y="821.6399999999999" as="targetPoint" />
          </mxGeometry>
        </mxCell>
        <mxCell id="QQjfzLLn-K8nmrEozijN-110" value="" style="endArrow=none;html=1;rounded=0;entryX=0.5;entryY=0;entryDx=0;entryDy=0;" edge="1" parent="1" target="QQjfzLLn-K8nmrEozijN-104">
          <mxGeometry relative="1" as="geometry">
            <mxPoint x="650" y="760" as="sourcePoint" />
            <mxPoint x="611" y="839" as="targetPoint" />
          </mxGeometry>
        </mxCell>
        <mxCell id="QQjfzLLn-K8nmrEozijN-111" value="" style="endArrow=none;html=1;rounded=0;entryX=0;entryY=0.5;entryDx=0;entryDy=0;" edge="1" parent="1" target="QQjfzLLn-K8nmrEozijN-105">
          <mxGeometry relative="1" as="geometry">
            <mxPoint x="650" y="760" as="sourcePoint" />
            <mxPoint x="607" y="843" as="targetPoint" />
          </mxGeometry>
        </mxCell>
        <mxCell id="QQjfzLLn-K8nmrEozijN-112" value="" style="endArrow=none;html=1;rounded=0;entryX=0;entryY=0.5;entryDx=0;entryDy=0;" edge="1" parent="1" target="QQjfzLLn-K8nmrEozijN-106">
          <mxGeometry relative="1" as="geometry">
            <mxPoint x="650" y="760" as="sourcePoint" />
            <mxPoint x="720" y="800" as="targetPoint" />
          </mxGeometry>
        </mxCell>
        <mxCell id="QQjfzLLn-K8nmrEozijN-113" value="" style="endArrow=none;html=1;rounded=0;entryX=0.5;entryY=0;entryDx=0;entryDy=0;exitX=0.5;exitY=1;exitDx=0;exitDy=0;" edge="1" parent="1" source="QQjfzLLn-K8nmrEozijN-98" target="QQjfzLLn-K8nmrEozijN-107">
          <mxGeometry relative="1" as="geometry">
            <mxPoint x="660" y="770" as="sourcePoint" />
            <mxPoint x="710" y="850" as="targetPoint" />
          </mxGeometry>
        </mxCell>
        <mxCell id="QQjfzLLn-K8nmrEozijN-114" value="nomor.anggota" style="ellipse;whiteSpace=wrap;html=1;align=center;fontStyle=4;fontSize=10;" vertex="1" parent="1">
          <mxGeometry x="532.5" y="300" width="80" height="40" as="geometry" />
        </mxCell>
        <mxCell id="QQjfzLLn-K8nmrEozijN-115" value="PPLG" style="ellipse;whiteSpace=wrap;html=1;align=center;" vertex="1" parent="1">
          <mxGeometry x="660" y="240" width="80" height="40" as="geometry" />
        </mxCell>
        <mxCell id="QQjfzLLn-K8nmrEozijN-116" value="nomor_anggota" style="ellipse;whiteSpace=wrap;html=1;align=center;fontStyle=4;" vertex="1" parent="1">
          <mxGeometry x="670" y="500" width="100" height="40" as="geometry" />
        </mxCell>
        <mxCell id="QQjfzLLn-K8nmrEozijN-117" value="nomor_buku" style="ellipse;whiteSpace=wrap;html=1;align=center;fontStyle=4;" vertex="1" parent="1">
          <mxGeometry x="730" y="550" width="100" height="40" as="geometry" />
        </mxCell>
        <mxCell id="QQjfzLLn-K8nmrEozijN-118" value="nomor_buku" style="ellipse;whiteSpace=wrap;html=1;align=center;fontStyle=4;" vertex="1" parent="1">
          <mxGeometry x="490" y="810" width="100" height="40" as="geometry" />
        </mxCell>
        <mxCell id="QQjfzLLn-K8nmrEozijN-123" value="" style="endArrow=none;html=1;rounded=0;entryX=0;entryY=0.5;entryDx=0;entryDy=0;exitX=1;exitY=0.5;exitDx=0;exitDy=0;" edge="1" parent="1" source="QQjfzLLn-K8nmrEozijN-10" target="QQjfzLLn-K8nmrEozijN-49">
          <mxGeometry relative="1" as="geometry">
            <mxPoint x="530" y="370" as="sourcePoint" />
            <mxPoint x="680" y="370" as="targetPoint" />
          </mxGeometry>
        </mxCell>
        <mxCell id="QQjfzLLn-K8nmrEozijN-127" value="Many" style="text;html=1;align=center;verticalAlign=middle;resizable=0;points=[];autosize=1;strokeColor=none;fillColor=none;fontSize=8;" vertex="1" parent="1">
          <mxGeometry x="320" y="367" width="40" height="20" as="geometry" />
        </mxCell>
        <mxCell id="QQjfzLLn-K8nmrEozijN-129" value="Many" style="text;html=1;align=center;verticalAlign=middle;resizable=0;points=[];autosize=1;strokeColor=none;fillColor=none;fontSize=8;" vertex="1" parent="1">
          <mxGeometry x="520" y="367" width="40" height="20" as="geometry" />
        </mxCell>
      </root>
    </mxGraphModel>
  </diagram>
</mxfile>
